<mxfile host="app.diagrams.net" modified="2023-10-24T18:29:44.688Z" agent="Mozilla/5.0 (Windows NT 10.0; Win64; x64) AppleWebKit/537.36 (KHTML, like Gecko) Chrome/118.0.0.0 Safari/537.36" etag="8auAey6UApbs6Px-jxs1" version="22.0.6" type="device" pages="2">
  <diagram name="Page-1" id="qyztjhCpvvW1mekO03f3">
    <mxGraphModel dx="1593" dy="869" grid="1" gridSize="10" guides="1" tooltips="1" connect="1" arrows="1" fold="1" page="1" pageScale="1" pageWidth="850" pageHeight="1100" math="0" shadow="0">
      <root>
        <mxCell id="0" />
        <mxCell id="1" parent="0" />
        <mxCell id="kxPHTYWv8pXfZ_jZ3Nhl-1" value="Корисник" style="whiteSpace=wrap;html=1;align=center;" parent="1" vertex="1">
          <mxGeometry x="210" y="180" width="100" height="40" as="geometry" />
        </mxCell>
        <mxCell id="kxPHTYWv8pXfZ_jZ3Nhl-2" value="име" style="ellipse;whiteSpace=wrap;html=1;align=center;" parent="1" vertex="1">
          <mxGeometry x="105" y="10" width="100" height="40" as="geometry" />
        </mxCell>
        <mxCell id="kxPHTYWv8pXfZ_jZ3Nhl-4" value="презиме" style="ellipse;whiteSpace=wrap;html=1;align=center;" parent="1" vertex="1">
          <mxGeometry x="205" y="60" width="100" height="40" as="geometry" />
        </mxCell>
        <mxCell id="kxPHTYWv8pXfZ_jZ3Nhl-7" value="емаил адреса" style="ellipse;whiteSpace=wrap;html=1;align=center;" parent="1" vertex="1">
          <mxGeometry x="40" y="155" width="100" height="40" as="geometry" />
        </mxCell>
        <mxCell id="kxPHTYWv8pXfZ_jZ3Nhl-9" value="датум на регистрација" style="ellipse;whiteSpace=wrap;html=1;align=center;" parent="1" vertex="1">
          <mxGeometry x="60" y="230" width="100" height="40" as="geometry" />
        </mxCell>
        <mxCell id="kxPHTYWv8pXfZ_jZ3Nhl-10" value="датум на раѓање" style="ellipse;whiteSpace=wrap;html=1;align=center;" parent="1" vertex="1">
          <mxGeometry x="100" y="100" width="100" height="40" as="geometry" />
        </mxCell>
        <mxCell id="kxPHTYWv8pXfZ_jZ3Nhl-11" style="edgeStyle=orthogonalEdgeStyle;rounded=0;orthogonalLoop=1;jettySize=auto;html=1;exitX=0.5;exitY=1;exitDx=0;exitDy=0;" parent="1" source="kxPHTYWv8pXfZ_jZ3Nhl-7" target="kxPHTYWv8pXfZ_jZ3Nhl-7" edge="1">
          <mxGeometry relative="1" as="geometry" />
        </mxCell>
        <mxCell id="kxPHTYWv8pXfZ_jZ3Nhl-14" value="" style="endArrow=none;html=1;rounded=0;exitX=0.5;exitY=1;exitDx=0;exitDy=0;" parent="1" source="kxPHTYWv8pXfZ_jZ3Nhl-4" target="kxPHTYWv8pXfZ_jZ3Nhl-1" edge="1">
          <mxGeometry relative="1" as="geometry">
            <mxPoint x="274" y="350" as="sourcePoint" />
            <mxPoint x="320" y="379" as="targetPoint" />
          </mxGeometry>
        </mxCell>
        <mxCell id="kxPHTYWv8pXfZ_jZ3Nhl-15" value="" style="endArrow=none;html=1;rounded=0;" parent="1" source="kxPHTYWv8pXfZ_jZ3Nhl-2" target="kxPHTYWv8pXfZ_jZ3Nhl-1" edge="1">
          <mxGeometry relative="1" as="geometry">
            <mxPoint x="180" y="340" as="sourcePoint" />
            <mxPoint x="340" y="340" as="targetPoint" />
          </mxGeometry>
        </mxCell>
        <mxCell id="kxPHTYWv8pXfZ_jZ3Nhl-18" value="" style="endArrow=none;html=1;rounded=0;entryX=0;entryY=0.5;entryDx=0;entryDy=0;" parent="1" source="kxPHTYWv8pXfZ_jZ3Nhl-7" target="kxPHTYWv8pXfZ_jZ3Nhl-1" edge="1">
          <mxGeometry relative="1" as="geometry">
            <mxPoint x="160" y="203" as="sourcePoint" />
            <mxPoint x="220" y="207" as="targetPoint" />
          </mxGeometry>
        </mxCell>
        <mxCell id="kxPHTYWv8pXfZ_jZ3Nhl-19" value="" style="endArrow=none;html=1;rounded=0;entryX=0.133;entryY=1.03;entryDx=0;entryDy=0;entryPerimeter=0;" parent="1" source="kxPHTYWv8pXfZ_jZ3Nhl-9" target="kxPHTYWv8pXfZ_jZ3Nhl-1" edge="1">
          <mxGeometry relative="1" as="geometry">
            <mxPoint x="180" y="340" as="sourcePoint" />
            <mxPoint x="340" y="340" as="targetPoint" />
          </mxGeometry>
        </mxCell>
        <mxCell id="kxPHTYWv8pXfZ_jZ3Nhl-21" value="корисничко име" style="ellipse;whiteSpace=wrap;html=1;align=center;fontStyle=4;" parent="1" vertex="1">
          <mxGeometry x="290" y="10" width="100" height="40" as="geometry" />
        </mxCell>
        <mxCell id="kxPHTYWv8pXfZ_jZ3Nhl-22" value="" style="endArrow=none;html=1;rounded=0;" parent="1" source="kxPHTYWv8pXfZ_jZ3Nhl-1" target="kxPHTYWv8pXfZ_jZ3Nhl-21" edge="1">
          <mxGeometry relative="1" as="geometry">
            <mxPoint x="180" y="340" as="sourcePoint" />
            <mxPoint x="340" y="340" as="targetPoint" />
          </mxGeometry>
        </mxCell>
        <mxCell id="kxPHTYWv8pXfZ_jZ3Nhl-24" value="" style="endArrow=none;html=1;rounded=0;" parent="1" source="kxPHTYWv8pXfZ_jZ3Nhl-10" target="kxPHTYWv8pXfZ_jZ3Nhl-1" edge="1">
          <mxGeometry relative="1" as="geometry">
            <mxPoint x="90" y="360" as="sourcePoint" />
            <mxPoint x="250" y="360" as="targetPoint" />
          </mxGeometry>
        </mxCell>
        <mxCell id="kxPHTYWv8pXfZ_jZ3Nhl-25" value="Листа со туристички места" style="whiteSpace=wrap;html=1;align=center;" parent="1" vertex="1">
          <mxGeometry x="520" y="330" width="100" height="40" as="geometry" />
        </mxCell>
        <mxCell id="kxPHTYWv8pXfZ_jZ3Nhl-27" value="име" style="ellipse;whiteSpace=wrap;html=1;align=center;" parent="1" vertex="1">
          <mxGeometry x="620" y="275" width="100" height="40" as="geometry" />
        </mxCell>
        <mxCell id="kxPHTYWv8pXfZ_jZ3Nhl-28" value="датум на креирање" style="ellipse;whiteSpace=wrap;html=1;align=center;" parent="1" vertex="1">
          <mxGeometry x="640" y="360" width="100" height="40" as="geometry" />
        </mxCell>
        <mxCell id="kxPHTYWv8pXfZ_jZ3Nhl-29" value="" style="endArrow=none;html=1;rounded=0;exitX=0.5;exitY=1;exitDx=0;exitDy=0;" parent="1" source="kxPHTYWv8pXfZ_jZ3Nhl-27" target="kxPHTYWv8pXfZ_jZ3Nhl-25" edge="1">
          <mxGeometry relative="1" as="geometry">
            <mxPoint x="645" y="495" as="sourcePoint" />
            <mxPoint x="805" y="495" as="targetPoint" />
          </mxGeometry>
        </mxCell>
        <mxCell id="kxPHTYWv8pXfZ_jZ3Nhl-30" value="" style="endArrow=none;html=1;rounded=0;" parent="1" source="kxPHTYWv8pXfZ_jZ3Nhl-28" target="kxPHTYWv8pXfZ_jZ3Nhl-25" edge="1">
          <mxGeometry relative="1" as="geometry">
            <mxPoint x="645" y="495" as="sourcePoint" />
            <mxPoint x="805" y="495" as="targetPoint" />
          </mxGeometry>
        </mxCell>
        <mxCell id="kxPHTYWv8pXfZ_jZ3Nhl-31" value="креира" style="shape=rhombus;perimeter=rhombusPerimeter;whiteSpace=wrap;html=1;align=center;" parent="1" vertex="1">
          <mxGeometry x="360" y="370" width="50" height="50" as="geometry" />
        </mxCell>
        <mxCell id="kxPHTYWv8pXfZ_jZ3Nhl-39" value="" style="endArrow=none;html=1;rounded=0;entryX=0;entryY=1;entryDx=0;entryDy=0;" parent="1" source="kxPHTYWv8pXfZ_jZ3Nhl-31" target="kxPHTYWv8pXfZ_jZ3Nhl-25" edge="1">
          <mxGeometry relative="1" as="geometry">
            <mxPoint x="225" y="505" as="sourcePoint" />
            <mxPoint x="385" y="505" as="targetPoint" />
            <Array as="points" />
          </mxGeometry>
        </mxCell>
        <mxCell id="kxPHTYWv8pXfZ_jZ3Nhl-40" value="N" style="resizable=0;html=1;whiteSpace=wrap;align=right;verticalAlign=bottom;" parent="kxPHTYWv8pXfZ_jZ3Nhl-39" connectable="0" vertex="1">
          <mxGeometry x="1" relative="1" as="geometry" />
        </mxCell>
        <mxCell id="kxPHTYWv8pXfZ_jZ3Nhl-41" value="" style="endArrow=none;html=1;rounded=0;exitX=0.75;exitY=1;exitDx=0;exitDy=0;" parent="1" source="kxPHTYWv8pXfZ_jZ3Nhl-1" target="kxPHTYWv8pXfZ_jZ3Nhl-31" edge="1">
          <mxGeometry relative="1" as="geometry">
            <mxPoint x="290" y="400" as="sourcePoint" />
            <mxPoint x="350" y="280" as="targetPoint" />
          </mxGeometry>
        </mxCell>
        <mxCell id="kxPHTYWv8pXfZ_jZ3Nhl-42" value="М" style="text;html=1;align=center;verticalAlign=middle;resizable=0;points=[];autosize=1;strokeColor=none;fillColor=none;" parent="1" vertex="1">
          <mxGeometry x="270" y="225" width="30" height="30" as="geometry" />
        </mxCell>
        <mxCell id="5pbDQM9_1jpH_-3OIP7z-1" value="Објект" style="whiteSpace=wrap;html=1;align=center;" parent="1" vertex="1">
          <mxGeometry x="540" y="665" width="100" height="40" as="geometry" />
        </mxCell>
        <mxCell id="5pbDQM9_1jpH_-3OIP7z-2" value="име" style="ellipse;whiteSpace=wrap;html=1;align=center;" parent="1" vertex="1">
          <mxGeometry x="505" y="735" width="100" height="40" as="geometry" />
        </mxCell>
        <mxCell id="5pbDQM9_1jpH_-3OIP7z-3" value="адреса" style="ellipse;whiteSpace=wrap;html=1;align=center;" parent="1" vertex="1">
          <mxGeometry x="605" y="585" width="100" height="40" as="geometry" />
        </mxCell>
        <mxCell id="5pbDQM9_1jpH_-3OIP7z-7" value="географска ширина" style="ellipse;whiteSpace=wrap;html=1;align=center;" parent="1" vertex="1">
          <mxGeometry x="750" y="755" width="100" height="40" as="geometry" />
        </mxCell>
        <mxCell id="5pbDQM9_1jpH_-3OIP7z-8" value="географска должина" style="ellipse;whiteSpace=wrap;html=1;align=center;" parent="1" vertex="1">
          <mxGeometry x="652.5" y="815" width="100" height="40" as="geometry" />
        </mxCell>
        <mxCell id="5pbDQM9_1jpH_-3OIP7z-9" value="" style="endArrow=none;html=1;rounded=0;entryX=0.43;entryY=-0.025;entryDx=0;entryDy=0;entryPerimeter=0;" parent="1" source="5pbDQM9_1jpH_-3OIP7z-8" target="lPiz2dvJtYQmqizEM2Kz-10" edge="1">
          <mxGeometry relative="1" as="geometry">
            <mxPoint x="410" y="470" as="sourcePoint" />
            <mxPoint x="927.0710678118653" y="640.2010101267788" as="targetPoint" />
          </mxGeometry>
        </mxCell>
        <mxCell id="5pbDQM9_1jpH_-3OIP7z-10" value="" style="endArrow=none;html=1;rounded=0;" parent="1" source="lPiz2dvJtYQmqizEM2Kz-10" target="5pbDQM9_1jpH_-3OIP7z-7" edge="1">
          <mxGeometry relative="1" as="geometry">
            <mxPoint x="934" y="642" as="sourcePoint" />
            <mxPoint x="570" y="470" as="targetPoint" />
          </mxGeometry>
        </mxCell>
        <mxCell id="5pbDQM9_1jpH_-3OIP7z-11" value="" style="endArrow=none;html=1;rounded=0;" parent="1" source="5pbDQM9_1jpH_-3OIP7z-1" target="lPiz2dvJtYQmqizEM2Kz-10" edge="1">
          <mxGeometry relative="1" as="geometry">
            <mxPoint x="410" y="470" as="sourcePoint" />
            <mxPoint x="878" y="668" as="targetPoint" />
          </mxGeometry>
        </mxCell>
        <mxCell id="5pbDQM9_1jpH_-3OIP7z-12" value="" style="endArrow=none;html=1;rounded=0;entryX=0.25;entryY=1;entryDx=0;entryDy=0;" parent="1" source="5pbDQM9_1jpH_-3OIP7z-2" target="5pbDQM9_1jpH_-3OIP7z-1" edge="1">
          <mxGeometry relative="1" as="geometry">
            <mxPoint x="410" y="470" as="sourcePoint" />
            <mxPoint x="570" y="695" as="targetPoint" />
          </mxGeometry>
        </mxCell>
        <mxCell id="5pbDQM9_1jpH_-3OIP7z-13" value="" style="endArrow=none;html=1;rounded=0;entryX=0.5;entryY=0;entryDx=0;entryDy=0;" parent="1" source="5pbDQM9_1jpH_-3OIP7z-3" target="5pbDQM9_1jpH_-3OIP7z-1" edge="1">
          <mxGeometry relative="1" as="geometry">
            <mxPoint x="650.0000000000005" y="605" as="sourcePoint" />
            <mxPoint x="555" y="630" as="targetPoint" />
          </mxGeometry>
        </mxCell>
        <mxCell id="5pbDQM9_1jpH_-3OIP7z-14" value="Град" style="whiteSpace=wrap;html=1;align=center;" parent="1" vertex="1">
          <mxGeometry x="175" y="670" width="100" height="40" as="geometry" />
        </mxCell>
        <mxCell id="5pbDQM9_1jpH_-3OIP7z-16" value="име" style="ellipse;whiteSpace=wrap;html=1;align=center;" parent="1" vertex="1">
          <mxGeometry x="30" y="655" width="100" height="40" as="geometry" />
        </mxCell>
        <mxCell id="5pbDQM9_1jpH_-3OIP7z-17" value="држава во која припаѓа" style="ellipse;whiteSpace=wrap;html=1;align=center;" parent="1" vertex="1">
          <mxGeometry x="40" y="590" width="100" height="40" as="geometry" />
        </mxCell>
        <mxCell id="5pbDQM9_1jpH_-3OIP7z-19" style="edgeStyle=orthogonalEdgeStyle;rounded=0;orthogonalLoop=1;jettySize=auto;html=1;exitX=0.5;exitY=1;exitDx=0;exitDy=0;" parent="1" edge="1">
          <mxGeometry relative="1" as="geometry">
            <mxPoint x="65" y="710" as="sourcePoint" />
            <mxPoint x="65" y="710" as="targetPoint" />
          </mxGeometry>
        </mxCell>
        <mxCell id="5pbDQM9_1jpH_-3OIP7z-20" value="" style="endArrow=none;html=1;rounded=0;entryX=0;entryY=0.75;entryDx=0;entryDy=0;exitX=1;exitY=1;exitDx=0;exitDy=0;" parent="1" source="5pbDQM9_1jpH_-3OIP7z-16" target="5pbDQM9_1jpH_-3OIP7z-14" edge="1">
          <mxGeometry relative="1" as="geometry">
            <mxPoint x="113.86939624708089" y="694.2290823675355" as="sourcePoint" />
            <mxPoint x="415" y="600" as="targetPoint" />
          </mxGeometry>
        </mxCell>
        <mxCell id="5pbDQM9_1jpH_-3OIP7z-21" value="" style="endArrow=none;html=1;rounded=0;" parent="1" source="5pbDQM9_1jpH_-3OIP7z-17" target="5pbDQM9_1jpH_-3OIP7z-14" edge="1">
          <mxGeometry relative="1" as="geometry">
            <mxPoint x="255" y="600" as="sourcePoint" />
            <mxPoint x="415" y="600" as="targetPoint" />
          </mxGeometry>
        </mxCell>
        <mxCell id="5pbDQM9_1jpH_-3OIP7z-22" value="припаѓа" style="shape=rhombus;perimeter=rhombusPerimeter;whiteSpace=wrap;html=1;align=center;" parent="1" vertex="1">
          <mxGeometry x="335" y="660" width="120" height="60" as="geometry" />
        </mxCell>
        <mxCell id="5pbDQM9_1jpH_-3OIP7z-23" value="" style="endArrow=none;html=1;rounded=0;exitX=1;exitY=0.5;exitDx=0;exitDy=0;entryX=0;entryY=0.5;entryDx=0;entryDy=0;" parent="1" source="5pbDQM9_1jpH_-3OIP7z-14" target="5pbDQM9_1jpH_-3OIP7z-22" edge="1">
          <mxGeometry relative="1" as="geometry">
            <mxPoint x="255" y="600" as="sourcePoint" />
            <mxPoint x="335" y="690" as="targetPoint" />
          </mxGeometry>
        </mxCell>
        <mxCell id="5pbDQM9_1jpH_-3OIP7z-25" value="Туристички агенции" style="whiteSpace=wrap;html=1;align=center;" parent="1" vertex="1">
          <mxGeometry x="850" y="365" width="100" height="40" as="geometry" />
        </mxCell>
        <mxCell id="5pbDQM9_1jpH_-3OIP7z-27" value="име" style="ellipse;whiteSpace=wrap;html=1;align=center;" parent="1" vertex="1">
          <mxGeometry x="800" y="440" width="100" height="40" as="geometry" />
        </mxCell>
        <mxCell id="5pbDQM9_1jpH_-3OIP7z-28" value="локација" style="ellipse;whiteSpace=wrap;html=1;align=center;" parent="1" vertex="1">
          <mxGeometry x="920" y="460" width="100" height="40" as="geometry" />
        </mxCell>
        <mxCell id="5pbDQM9_1jpH_-3OIP7z-29" value="" style="endArrow=none;html=1;rounded=0;entryX=0.19;entryY=0.975;entryDx=0;entryDy=0;entryPerimeter=0;exitX=0.5;exitY=0;exitDx=0;exitDy=0;" parent="1" source="5pbDQM9_1jpH_-3OIP7z-27" target="5pbDQM9_1jpH_-3OIP7z-25" edge="1">
          <mxGeometry relative="1" as="geometry">
            <mxPoint x="680" y="380" as="sourcePoint" />
            <mxPoint x="840" y="380" as="targetPoint" />
          </mxGeometry>
        </mxCell>
        <mxCell id="5pbDQM9_1jpH_-3OIP7z-30" value="" style="endArrow=none;html=1;rounded=0;entryX=0.5;entryY=0;entryDx=0;entryDy=0;exitX=0.5;exitY=1;exitDx=0;exitDy=0;" parent="1" source="5pbDQM9_1jpH_-3OIP7z-25" target="5pbDQM9_1jpH_-3OIP7z-28" edge="1">
          <mxGeometry relative="1" as="geometry">
            <mxPoint x="680" y="380" as="sourcePoint" />
            <mxPoint x="840" y="380" as="targetPoint" />
          </mxGeometry>
        </mxCell>
        <mxCell id="lPiz2dvJtYQmqizEM2Kz-1" value="Туристичко место" style="whiteSpace=wrap;html=1;align=center;" vertex="1" parent="1">
          <mxGeometry x="375" y="480" width="100" height="40" as="geometry" />
        </mxCell>
        <mxCell id="lPiz2dvJtYQmqizEM2Kz-3" value="Споделува" style="shape=rhombus;perimeter=rhombusPerimeter;whiteSpace=wrap;html=1;align=center;" vertex="1" parent="1">
          <mxGeometry x="415" y="260" width="60" height="60" as="geometry" />
        </mxCell>
        <mxCell id="lPiz2dvJtYQmqizEM2Kz-5" value="" style="endArrow=none;html=1;rounded=0;exitX=1;exitY=1;exitDx=0;exitDy=0;entryX=0;entryY=0.5;entryDx=0;entryDy=0;" edge="1" parent="1" source="lPiz2dvJtYQmqizEM2Kz-3" target="kxPHTYWv8pXfZ_jZ3Nhl-25">
          <mxGeometry relative="1" as="geometry">
            <mxPoint x="545" y="394.5" as="sourcePoint" />
            <mxPoint x="585" y="365" as="targetPoint" />
          </mxGeometry>
        </mxCell>
        <mxCell id="lPiz2dvJtYQmqizEM2Kz-6" value="N" style="resizable=0;html=1;whiteSpace=wrap;align=right;verticalAlign=bottom;" connectable="0" vertex="1" parent="lPiz2dvJtYQmqizEM2Kz-5">
          <mxGeometry x="1" relative="1" as="geometry">
            <mxPoint x="-2" y="-10" as="offset" />
          </mxGeometry>
        </mxCell>
        <mxCell id="lPiz2dvJtYQmqizEM2Kz-7" value="" style="endArrow=none;html=1;rounded=0;exitX=0.133;exitY=0.65;exitDx=0;exitDy=0;exitPerimeter=0;" edge="1" parent="1" source="lPiz2dvJtYQmqizEM2Kz-3" target="kxPHTYWv8pXfZ_jZ3Nhl-1">
          <mxGeometry relative="1" as="geometry">
            <mxPoint x="770" y="480" as="sourcePoint" />
            <mxPoint x="930" y="480" as="targetPoint" />
          </mxGeometry>
        </mxCell>
        <mxCell id="lPiz2dvJtYQmqizEM2Kz-9" value="М" style="text;html=1;align=center;verticalAlign=middle;resizable=0;points=[];autosize=1;strokeColor=none;fillColor=none;" vertex="1" parent="1">
          <mxGeometry x="310" y="215" width="30" height="30" as="geometry" />
        </mxCell>
        <mxCell id="lPiz2dvJtYQmqizEM2Kz-10" value="географска локација" style="ellipse;whiteSpace=wrap;html=1;align=center;" vertex="1" parent="1">
          <mxGeometry x="620" y="730" width="100" height="40" as="geometry" />
        </mxCell>
        <mxCell id="lPiz2dvJtYQmqizEM2Kz-12" value="датум на споделување&amp;nbsp;" style="ellipse;whiteSpace=wrap;html=1;align=center;" vertex="1" parent="1">
          <mxGeometry x="375" y="190" width="100" height="40" as="geometry" />
        </mxCell>
        <mxCell id="lPiz2dvJtYQmqizEM2Kz-13" value="коментар" style="ellipse;whiteSpace=wrap;html=1;align=center;" vertex="1" parent="1">
          <mxGeometry x="460" y="220" width="100" height="40" as="geometry" />
        </mxCell>
        <mxCell id="lPiz2dvJtYQmqizEM2Kz-14" value="" style="endArrow=none;html=1;rounded=0;exitX=0.67;exitY=1.05;exitDx=0;exitDy=0;exitPerimeter=0;" edge="1" parent="1" source="lPiz2dvJtYQmqizEM2Kz-12" target="lPiz2dvJtYQmqizEM2Kz-3">
          <mxGeometry relative="1" as="geometry">
            <mxPoint x="705" y="445" as="sourcePoint" />
            <mxPoint x="865" y="445" as="targetPoint" />
          </mxGeometry>
        </mxCell>
        <mxCell id="lPiz2dvJtYQmqizEM2Kz-15" value="" style="endArrow=none;html=1;rounded=0;" edge="1" parent="1" source="lPiz2dvJtYQmqizEM2Kz-13" target="lPiz2dvJtYQmqizEM2Kz-3">
          <mxGeometry relative="1" as="geometry">
            <mxPoint x="485" y="235" as="sourcePoint" />
            <mxPoint x="865" y="445" as="targetPoint" />
          </mxGeometry>
        </mxCell>
        <mxCell id="lPiz2dvJtYQmqizEM2Kz-16" value="N" style="text;html=1;align=center;verticalAlign=middle;resizable=0;points=[];autosize=1;strokeColor=none;fillColor=none;" vertex="1" parent="1">
          <mxGeometry x="510" y="665" width="30" height="30" as="geometry" />
        </mxCell>
        <mxCell id="lPiz2dvJtYQmqizEM2Kz-17" value="1" style="text;html=1;align=center;verticalAlign=middle;resizable=0;points=[];autosize=1;strokeColor=none;fillColor=none;" vertex="1" parent="1">
          <mxGeometry x="275" y="660" width="30" height="30" as="geometry" />
        </mxCell>
        <mxCell id="lPiz2dvJtYQmqizEM2Kz-19" value="Патување" style="whiteSpace=wrap;html=1;align=center;" vertex="1" parent="1">
          <mxGeometry x="850" y="85" width="100" height="40" as="geometry" />
        </mxCell>
        <mxCell id="lPiz2dvJtYQmqizEM2Kz-20" value="соседни градови" style="ellipse;shape=doubleEllipse;margin=3;whiteSpace=wrap;html=1;align=center;" vertex="1" parent="1">
          <mxGeometry x="115" y="745" width="100" height="40" as="geometry" />
        </mxCell>
        <mxCell id="lPiz2dvJtYQmqizEM2Kz-21" value="" style="endArrow=none;html=1;rounded=0;exitX=0.5;exitY=1;exitDx=0;exitDy=0;entryX=0.62;entryY=-0.05;entryDx=0;entryDy=0;entryPerimeter=0;" edge="1" parent="1" source="5pbDQM9_1jpH_-3OIP7z-14" target="lPiz2dvJtYQmqizEM2Kz-20">
          <mxGeometry relative="1" as="geometry">
            <mxPoint x="675" y="590" as="sourcePoint" />
            <mxPoint x="835" y="590" as="targetPoint" />
          </mxGeometry>
        </mxCell>
        <mxCell id="lPiz2dvJtYQmqizEM2Kz-22" value="растојание" style="ellipse;whiteSpace=wrap;html=1;align=center;" vertex="1" parent="1">
          <mxGeometry x="80" y="815" width="100" height="40" as="geometry" />
        </mxCell>
        <mxCell id="lPiz2dvJtYQmqizEM2Kz-23" value="" style="endArrow=none;html=1;rounded=0;exitX=0.5;exitY=1;exitDx=0;exitDy=0;" edge="1" parent="1" source="lPiz2dvJtYQmqizEM2Kz-20" target="lPiz2dvJtYQmqizEM2Kz-22">
          <mxGeometry relative="1" as="geometry">
            <mxPoint x="675" y="590" as="sourcePoint" />
            <mxPoint x="835" y="590" as="targetPoint" />
          </mxGeometry>
        </mxCell>
        <mxCell id="lPiz2dvJtYQmqizEM2Kz-24" value="" style="endArrow=none;html=1;rounded=0;" edge="1" parent="1" source="5pbDQM9_1jpH_-3OIP7z-22" target="5pbDQM9_1jpH_-3OIP7z-1">
          <mxGeometry width="50" height="50" relative="1" as="geometry">
            <mxPoint x="780" y="555" as="sourcePoint" />
            <mxPoint x="830" y="505" as="targetPoint" />
          </mxGeometry>
        </mxCell>
        <mxCell id="lPiz2dvJtYQmqizEM2Kz-25" value="организира" style="shape=rhombus;perimeter=rhombusPerimeter;whiteSpace=wrap;html=1;align=center;" vertex="1" parent="1">
          <mxGeometry x="870" y="235" width="60" height="60" as="geometry" />
        </mxCell>
        <mxCell id="lPiz2dvJtYQmqizEM2Kz-26" value="" style="endArrow=none;html=1;rounded=0;exitX=0.5;exitY=1;exitDx=0;exitDy=0;" edge="1" parent="1" source="lPiz2dvJtYQmqizEM2Kz-25" target="5pbDQM9_1jpH_-3OIP7z-25">
          <mxGeometry relative="1" as="geometry">
            <mxPoint x="890" y="285" as="sourcePoint" />
            <mxPoint x="1050" y="285" as="targetPoint" />
          </mxGeometry>
        </mxCell>
        <mxCell id="lPiz2dvJtYQmqizEM2Kz-27" value="1" style="resizable=0;html=1;whiteSpace=wrap;align=right;verticalAlign=bottom;" connectable="0" vertex="1" parent="lPiz2dvJtYQmqizEM2Kz-26">
          <mxGeometry x="1" relative="1" as="geometry" />
        </mxCell>
        <mxCell id="lPiz2dvJtYQmqizEM2Kz-31" value="пол" style="ellipse;whiteSpace=wrap;html=1;align=center;" vertex="1" parent="1">
          <mxGeometry x="160" y="265" width="100" height="40" as="geometry" />
        </mxCell>
        <mxCell id="lPiz2dvJtYQmqizEM2Kz-32" value="" style="endArrow=none;html=1;rounded=0;exitX=1;exitY=0;exitDx=0;exitDy=0;" edge="1" parent="1" source="lPiz2dvJtYQmqizEM2Kz-31">
          <mxGeometry relative="1" as="geometry">
            <mxPoint x="287" y="180" as="sourcePoint" />
            <mxPoint x="250" y="220" as="targetPoint" />
          </mxGeometry>
        </mxCell>
        <mxCell id="lPiz2dvJtYQmqizEM2Kz-34" value="" style="endArrow=none;html=1;rounded=0;exitX=0.5;exitY=1;exitDx=0;exitDy=0;" edge="1" parent="1" source="lPiz2dvJtYQmqizEM2Kz-19" target="lPiz2dvJtYQmqizEM2Kz-25">
          <mxGeometry relative="1" as="geometry">
            <mxPoint x="780" y="380" as="sourcePoint" />
            <mxPoint x="940" y="380" as="targetPoint" />
          </mxGeometry>
        </mxCell>
        <mxCell id="lPiz2dvJtYQmqizEM2Kz-35" value="N" style="text;html=1;align=center;verticalAlign=middle;resizable=0;points=[];autosize=1;strokeColor=none;fillColor=none;" vertex="1" parent="1">
          <mxGeometry x="870" y="125" width="30" height="30" as="geometry" />
        </mxCell>
        <mxCell id="lPiz2dvJtYQmqizEM2Kz-36" value="почетен датум" style="ellipse;whiteSpace=wrap;html=1;align=center;" vertex="1" parent="1">
          <mxGeometry x="960" y="10" width="100" height="40" as="geometry" />
        </mxCell>
        <mxCell id="lPiz2dvJtYQmqizEM2Kz-37" value="краен датум" style="ellipse;whiteSpace=wrap;html=1;align=center;" vertex="1" parent="1">
          <mxGeometry x="1010" y="70" width="100" height="40" as="geometry" />
        </mxCell>
        <mxCell id="lPiz2dvJtYQmqizEM2Kz-38" value="основна цена" style="ellipse;whiteSpace=wrap;html=1;align=center;" vertex="1" parent="1">
          <mxGeometry x="850" width="100" height="40" as="geometry" />
        </mxCell>
        <mxCell id="lPiz2dvJtYQmqizEM2Kz-41" value="" style="endArrow=none;html=1;rounded=0;exitX=0.343;exitY=1.057;exitDx=0;exitDy=0;exitPerimeter=0;" edge="1" parent="1" source="lPiz2dvJtYQmqizEM2Kz-36" target="lPiz2dvJtYQmqizEM2Kz-19">
          <mxGeometry relative="1" as="geometry">
            <mxPoint x="1127" y="245" as="sourcePoint" />
            <mxPoint x="1080" y="265" as="targetPoint" />
          </mxGeometry>
        </mxCell>
        <mxCell id="lPiz2dvJtYQmqizEM2Kz-42" value="" style="endArrow=none;html=1;rounded=0;entryX=1;entryY=0.5;entryDx=0;entryDy=0;" edge="1" parent="1" source="lPiz2dvJtYQmqizEM2Kz-37" target="lPiz2dvJtYQmqizEM2Kz-19">
          <mxGeometry relative="1" as="geometry">
            <mxPoint x="1004" y="62" as="sourcePoint" />
            <mxPoint x="946" y="95" as="targetPoint" />
          </mxGeometry>
        </mxCell>
        <mxCell id="lPiz2dvJtYQmqizEM2Kz-43" value="" style="endArrow=none;html=1;rounded=0;" edge="1" parent="1" source="lPiz2dvJtYQmqizEM2Kz-38" target="lPiz2dvJtYQmqizEM2Kz-19">
          <mxGeometry relative="1" as="geometry">
            <mxPoint x="1023" y="106" as="sourcePoint" />
            <mxPoint x="960" y="115" as="targetPoint" />
          </mxGeometry>
        </mxCell>
        <mxCell id="lPiz2dvJtYQmqizEM2Kz-44" value="присуствува" style="shape=rhombus;perimeter=rhombusPerimeter;whiteSpace=wrap;html=1;align=center;" vertex="1" parent="1">
          <mxGeometry x="570" y="75" width="90" height="55" as="geometry" />
        </mxCell>
        <mxCell id="lPiz2dvJtYQmqizEM2Kz-46" value="" style="endArrow=none;html=1;rounded=0;exitX=1;exitY=0.5;exitDx=0;exitDy=0;entryX=0;entryY=0.5;entryDx=0;entryDy=0;" edge="1" parent="1" source="lPiz2dvJtYQmqizEM2Kz-44" target="lPiz2dvJtYQmqizEM2Kz-19">
          <mxGeometry relative="1" as="geometry">
            <mxPoint x="780" y="290" as="sourcePoint" />
            <mxPoint x="940" y="290" as="targetPoint" />
          </mxGeometry>
        </mxCell>
        <mxCell id="lPiz2dvJtYQmqizEM2Kz-47" value="" style="endArrow=none;html=1;rounded=0;exitX=0.922;exitY=0.004;exitDx=0;exitDy=0;exitPerimeter=0;entryX=0;entryY=0.5;entryDx=0;entryDy=0;" edge="1" parent="1" source="kxPHTYWv8pXfZ_jZ3Nhl-1" target="lPiz2dvJtYQmqizEM2Kz-44">
          <mxGeometry relative="1" as="geometry">
            <mxPoint x="780" y="290" as="sourcePoint" />
            <mxPoint x="940" y="290" as="targetPoint" />
          </mxGeometry>
        </mxCell>
        <mxCell id="lPiz2dvJtYQmqizEM2Kz-48" value="М" style="text;html=1;align=center;verticalAlign=middle;resizable=0;points=[];autosize=1;strokeColor=none;fillColor=none;" vertex="1" parent="1">
          <mxGeometry x="290" y="150" width="30" height="30" as="geometry" />
        </mxCell>
        <mxCell id="lPiz2dvJtYQmqizEM2Kz-49" value="N" style="text;html=1;align=center;verticalAlign=middle;resizable=0;points=[];autosize=1;strokeColor=none;fillColor=none;" vertex="1" parent="1">
          <mxGeometry x="820" y="75" width="30" height="30" as="geometry" />
        </mxCell>
        <mxCell id="lPiz2dvJtYQmqizEM2Kz-50" value="Факултативни посети" style="whiteSpace=wrap;html=1;align=center;" vertex="1" parent="1">
          <mxGeometry x="1110" y="235" width="100" height="40" as="geometry" />
        </mxCell>
        <mxCell id="lPiz2dvJtYQmqizEM2Kz-51" value="датум" style="ellipse;whiteSpace=wrap;html=1;align=center;" vertex="1" parent="1">
          <mxGeometry x="1225" y="175" width="100" height="40" as="geometry" />
        </mxCell>
        <mxCell id="lPiz2dvJtYQmqizEM2Kz-52" value="цена на посета" style="ellipse;whiteSpace=wrap;html=1;align=center;" vertex="1" parent="1">
          <mxGeometry x="1250" y="275" width="100" height="40" as="geometry" />
        </mxCell>
        <mxCell id="lPiz2dvJtYQmqizEM2Kz-54" value="" style="endArrow=none;html=1;rounded=0;entryX=0;entryY=1;entryDx=0;entryDy=0;" edge="1" parent="1" source="lPiz2dvJtYQmqizEM2Kz-50" target="lPiz2dvJtYQmqizEM2Kz-51">
          <mxGeometry relative="1" as="geometry">
            <mxPoint x="780" y="290" as="sourcePoint" />
            <mxPoint x="940" y="290" as="targetPoint" />
          </mxGeometry>
        </mxCell>
        <mxCell id="lPiz2dvJtYQmqizEM2Kz-55" value="" style="endArrow=none;html=1;rounded=0;exitX=1;exitY=1;exitDx=0;exitDy=0;" edge="1" parent="1" source="lPiz2dvJtYQmqizEM2Kz-50" target="lPiz2dvJtYQmqizEM2Kz-52">
          <mxGeometry relative="1" as="geometry">
            <mxPoint x="780" y="290" as="sourcePoint" />
            <mxPoint x="940" y="290" as="targetPoint" />
          </mxGeometry>
        </mxCell>
        <mxCell id="lPiz2dvJtYQmqizEM2Kz-57" value="d" style="ellipse;whiteSpace=wrap;html=1;aspect=fixed;" vertex="1" parent="1">
          <mxGeometry x="410" y="560" width="30" height="30" as="geometry" />
        </mxCell>
        <mxCell id="lPiz2dvJtYQmqizEM2Kz-63" value="" style="endArrow=none;html=1;rounded=0;entryX=0.821;entryY=1.011;entryDx=0;entryDy=0;entryPerimeter=0;" edge="1" parent="1" source="lPiz2dvJtYQmqizEM2Kz-65" target="lPiz2dvJtYQmqizEM2Kz-19">
          <mxGeometry relative="1" as="geometry">
            <mxPoint x="530" y="410" as="sourcePoint" />
            <mxPoint x="690" y="410" as="targetPoint" />
          </mxGeometry>
        </mxCell>
        <mxCell id="lPiz2dvJtYQmqizEM2Kz-65" value="o" style="ellipse;whiteSpace=wrap;html=1;aspect=fixed;" vertex="1" parent="1">
          <mxGeometry x="1010" y="150" width="30" height="30" as="geometry" />
        </mxCell>
        <mxCell id="lPiz2dvJtYQmqizEM2Kz-67" value="" style="endArrow=none;html=1;rounded=0;entryX=0.5;entryY=1;entryDx=0;entryDy=0;exitX=0.75;exitY=0;exitDx=0;exitDy=0;" edge="1" parent="1" source="lPiz2dvJtYQmqizEM2Kz-62" target="kxPHTYWv8pXfZ_jZ3Nhl-25">
          <mxGeometry relative="1" as="geometry">
            <mxPoint x="530" y="470" as="sourcePoint" />
            <mxPoint x="690" y="470" as="targetPoint" />
          </mxGeometry>
        </mxCell>
        <mxCell id="lPiz2dvJtYQmqizEM2Kz-68" value="" style="endArrow=none;html=1;rounded=0;entryX=0.5;entryY=1;entryDx=0;entryDy=0;exitX=0.75;exitY=0;exitDx=0;exitDy=0;" edge="1" parent="1" source="lPiz2dvJtYQmqizEM2Kz-1" target="lPiz2dvJtYQmqizEM2Kz-62">
          <mxGeometry relative="1" as="geometry">
            <mxPoint x="435" y="480" as="sourcePoint" />
            <mxPoint x="570" y="370" as="targetPoint" />
          </mxGeometry>
        </mxCell>
        <mxCell id="lPiz2dvJtYQmqizEM2Kz-62" value="" style="shape=rhombus;perimeter=rhombusPerimeter;whiteSpace=wrap;html=1;align=center;" vertex="1" parent="1">
          <mxGeometry x="490" y="405" width="40" height="30" as="geometry" />
        </mxCell>
        <mxCell id="lPiz2dvJtYQmqizEM2Kz-73" value="" style="shape=link;html=1;rounded=0;exitX=1;exitY=0.5;exitDx=0;exitDy=0;" edge="1" parent="1" source="lPiz2dvJtYQmqizEM2Kz-1" target="lPiz2dvJtYQmqizEM2Kz-69">
          <mxGeometry relative="1" as="geometry">
            <mxPoint x="475" y="500" as="sourcePoint" />
            <mxPoint x="891" y="125" as="targetPoint" />
            <Array as="points" />
          </mxGeometry>
        </mxCell>
        <mxCell id="lPiz2dvJtYQmqizEM2Kz-74" value="M" style="resizable=0;html=1;whiteSpace=wrap;align=left;verticalAlign=bottom;" connectable="0" vertex="1" parent="lPiz2dvJtYQmqizEM2Kz-73">
          <mxGeometry x="-1" relative="1" as="geometry" />
        </mxCell>
        <mxCell id="lPiz2dvJtYQmqizEM2Kz-69" value="посетува" style="shape=rhombus;perimeter=rhombusPerimeter;whiteSpace=wrap;html=1;align=center;" vertex="1" parent="1">
          <mxGeometry x="645" y="435" width="90" height="50" as="geometry" />
        </mxCell>
        <mxCell id="lPiz2dvJtYQmqizEM2Kz-76" value="" style="endArrow=none;html=1;rounded=0;entryX=0.25;entryY=1;entryDx=0;entryDy=0;exitX=1;exitY=0;exitDx=0;exitDy=0;" edge="1" parent="1" source="lPiz2dvJtYQmqizEM2Kz-69" target="lPiz2dvJtYQmqizEM2Kz-19">
          <mxGeometry relative="1" as="geometry">
            <mxPoint x="711" y="509.99999999999994" as="sourcePoint" />
            <mxPoint x="849.9499999999998" y="170.02000000000004" as="targetPoint" />
          </mxGeometry>
        </mxCell>
        <mxCell id="lPiz2dvJtYQmqizEM2Kz-77" value="N" style="resizable=0;html=1;whiteSpace=wrap;align=right;verticalAlign=bottom;" connectable="0" vertex="1" parent="lPiz2dvJtYQmqizEM2Kz-76">
          <mxGeometry x="1" relative="1" as="geometry" />
        </mxCell>
        <mxCell id="lPiz2dvJtYQmqizEM2Kz-78" value="" style="endArrow=none;html=1;rounded=0;exitX=0.5;exitY=1;exitDx=0;exitDy=0;" edge="1" parent="1" source="lPiz2dvJtYQmqizEM2Kz-1" target="lPiz2dvJtYQmqizEM2Kz-57">
          <mxGeometry relative="1" as="geometry">
            <mxPoint x="530" y="470" as="sourcePoint" />
            <mxPoint x="690" y="470" as="targetPoint" />
          </mxGeometry>
        </mxCell>
        <mxCell id="lPiz2dvJtYQmqizEM2Kz-89" value="" style="ellipse;whiteSpace=wrap;html=1;align=center;aspect=fixed;fillColor=none;strokeColor=none;resizable=0;perimeter=centerPerimeter;rotatable=0;allowArrows=0;points=[];outlineConnect=1;" vertex="1" parent="1">
          <mxGeometry x="145" y="510" width="10" height="10" as="geometry" />
        </mxCell>
        <mxCell id="lPiz2dvJtYQmqizEM2Kz-94" value="" style="rounded=0;orthogonalLoop=1;jettySize=auto;html=1;endArrow=halfCircle;endFill=0;endSize=6;strokeWidth=1;sketch=0;fontSize=12;curved=1;exitX=0.5;exitY=0;exitDx=0;exitDy=0;" edge="1" parent="1" source="5pbDQM9_1jpH_-3OIP7z-14">
          <mxGeometry relative="1" as="geometry">
            <mxPoint x="360" y="585" as="sourcePoint" />
            <mxPoint x="320" y="620" as="targetPoint" />
          </mxGeometry>
        </mxCell>
        <mxCell id="lPiz2dvJtYQmqizEM2Kz-95" value="" style="ellipse;whiteSpace=wrap;html=1;align=center;aspect=fixed;fillColor=none;strokeColor=none;resizable=0;perimeter=centerPerimeter;rotatable=0;allowArrows=0;points=[];outlineConnect=1;" vertex="1" parent="1">
          <mxGeometry x="220" y="580" width="10" height="10" as="geometry" />
        </mxCell>
        <mxCell id="lPiz2dvJtYQmqizEM2Kz-96" value="" style="endArrow=none;html=1;rounded=0;exitX=0;exitY=1;exitDx=0;exitDy=0;" edge="1" parent="1" source="lPiz2dvJtYQmqizEM2Kz-57">
          <mxGeometry relative="1" as="geometry">
            <mxPoint x="440" y="650" as="sourcePoint" />
            <mxPoint x="300" y="630" as="targetPoint" />
            <Array as="points" />
          </mxGeometry>
        </mxCell>
        <mxCell id="lPiz2dvJtYQmqizEM2Kz-98" value="" style="endArrow=none;html=1;rounded=0;exitX=1;exitY=1;exitDx=0;exitDy=0;" edge="1" parent="1" source="lPiz2dvJtYQmqizEM2Kz-57">
          <mxGeometry relative="1" as="geometry">
            <mxPoint x="500" y="650" as="sourcePoint" />
            <mxPoint x="520" y="640" as="targetPoint" />
          </mxGeometry>
        </mxCell>
        <mxCell id="lPiz2dvJtYQmqizEM2Kz-99" value="" style="rounded=0;orthogonalLoop=1;jettySize=auto;html=1;endArrow=halfCircle;endFill=0;endSize=6;strokeWidth=1;sketch=0;fontSize=12;curved=1;" edge="1" parent="1" source="5pbDQM9_1jpH_-3OIP7z-1">
          <mxGeometry relative="1" as="geometry">
            <mxPoint x="595" y="645" as="sourcePoint" />
            <mxPoint x="490" y="620" as="targetPoint" />
          </mxGeometry>
        </mxCell>
        <mxCell id="lPiz2dvJtYQmqizEM2Kz-100" value="" style="ellipse;whiteSpace=wrap;html=1;align=center;aspect=fixed;fillColor=none;strokeColor=none;resizable=0;perimeter=centerPerimeter;rotatable=0;allowArrows=0;points=[];outlineConnect=1;" vertex="1" parent="1">
          <mxGeometry x="570" y="640" width="10" height="10" as="geometry" />
        </mxCell>
        <mxCell id="lPiz2dvJtYQmqizEM2Kz-104" value="" style="ellipse;whiteSpace=wrap;html=1;align=center;aspect=fixed;fillColor=none;strokeColor=none;resizable=0;perimeter=centerPerimeter;rotatable=0;allowArrows=0;points=[];outlineConnect=1;" vertex="1" parent="1">
          <mxGeometry x="1080" y="191.7" width="10" height="10" as="geometry" />
        </mxCell>
        <mxCell id="lPiz2dvJtYQmqizEM2Kz-105" value="" style="rounded=0;orthogonalLoop=1;jettySize=auto;html=1;endArrow=halfCircle;endFill=0;endSize=6;strokeWidth=1;sketch=0;fontSize=12;curved=1;exitX=0;exitY=0.5;exitDx=0;exitDy=0;" edge="1" parent="1">
          <mxGeometry relative="1" as="geometry">
            <mxPoint x="1110" y="260" as="sourcePoint" />
            <mxPoint x="1080" y="220" as="targetPoint" />
            <Array as="points" />
          </mxGeometry>
        </mxCell>
        <mxCell id="lPiz2dvJtYQmqizEM2Kz-106" value="" style="ellipse;whiteSpace=wrap;html=1;align=center;aspect=fixed;fillColor=none;strokeColor=none;resizable=0;perimeter=centerPerimeter;rotatable=0;allowArrows=0;points=[];outlineConnect=1;" vertex="1" parent="1">
          <mxGeometry x="1060" y="191.7" width="10" height="10" as="geometry" />
        </mxCell>
        <mxCell id="lPiz2dvJtYQmqizEM2Kz-108" value="" style="endArrow=none;html=1;rounded=0;" edge="1" parent="1" source="lPiz2dvJtYQmqizEM2Kz-65">
          <mxGeometry relative="1" as="geometry">
            <mxPoint x="930" y="245" as="sourcePoint" />
            <mxPoint x="1090" y="230" as="targetPoint" />
          </mxGeometry>
        </mxCell>
      </root>
    </mxGraphModel>
  </diagram>
  <diagram id="b44Uuue-FyCme5t9y4Um" name="Page-2">
    <mxGraphModel dx="743" dy="772" grid="1" gridSize="10" guides="1" tooltips="1" connect="1" arrows="1" fold="1" page="1" pageScale="1" pageWidth="850" pageHeight="1100" math="0" shadow="0">
      <root>
        <mxCell id="0" />
        <mxCell id="1" parent="0" />
      </root>
    </mxGraphModel>
  </diagram>
</mxfile>
